<?xml version="1.0" encoding="UTF-8" standalone="no"?>
<!-- Created with Inkscape (http://www.inkscape.org/) -->

<svg
   width="59"
   height="26"
   viewBox="0 0 15.610424 6.8791668"
   version="1.1"
   id="svg908"
   inkscape:version="1.4.2 (f4327f4, 2025-05-13)"
   sodipodi:docname="error-text.svg"
   xmlns:inkscape="http://www.inkscape.org/namespaces/inkscape"
   xmlns:sodipodi="http://sodipodi.sourceforge.net/DTD/sodipodi-0.dtd"
   xmlns:xlink="http://www.w3.org/1999/xlink"
   xmlns="http://www.w3.org/2000/svg"
   xmlns:svg="http://www.w3.org/2000/svg">
  <sodipodi:namedview
     id="namedview910"
     pagecolor="#ffffff"
     bordercolor="#666666"
     borderopacity="1.0"
     inkscape:showpageshadow="2"
     inkscape:pageopacity="0.0"
     inkscape:pagecheckerboard="0"
     inkscape:deskcolor="#d1d1d1"
     inkscape:document-units="mm"
     showgrid="false"
     inkscape:zoom="16.355932"
     inkscape:cx="30.203109"
     inkscape:cy="12.992228"
     inkscape:window-width="1424"
     inkscape:window-height="861"
     inkscape:window-x="0"
     inkscape:window-y="0"
     inkscape:window-maximized="0"
     inkscape:current-layer="layer1" />
  <defs
     id="defs905">
    <linearGradient
       id="linearGradient5"
       inkscape:collect="always">
      <stop
         style="stop-color:#ffffff;stop-opacity:1;"
         offset="0"
         id="stop5" />
      <stop
         style="stop-color:#d2d2d2;stop-opacity:1;"
         offset="1"
         id="stop6" />
    </linearGradient>
    <rect
       id="SVGID_00000105414853600283290720000017360153226701225652_"
       y="0"
       width="640"
       height="483.70001"
       x="0" />
    <defs
       id="defs235">
      <rect
         id="rect1106"
         y="0"
         width="640"
         height="483.70001"
         x="0" />
    </defs>
    <clipPath
       id="clipPath762">
      <use
         xlink:href="#SVGID_00000105414853600283290720000017360153226701225652_"
         style="overflow:visible"
         id="use760" />
    </clipPath>
    <clipPath
       clipPathUnits="userSpaceOnUse"
       id="clipPath1">
      <use
         xlink:href="#SVGID_00000105414853600283290720000017360153226701225652_"
         style="overflow:visible"
         id="use1"
         transform="matrix(0.26458439,0,0,0.26458333,-3.1190052,-118.71854)" />
    </clipPath>
    <clipPath
       clipPathUnits="userSpaceOnUse"
       id="clipPath2">
      <use
         xlink:href="#SVGID_00000105414853600283290720000017360153226701225652_"
         style="overflow:visible"
         id="use2"
         transform="matrix(0.26458439,0,0,0.26458333,-3.1190052,-118.71854)" />
    </clipPath>
    <clipPath
       clipPathUnits="userSpaceOnUse"
       id="clipPath3">
      <use
         xlink:href="#SVGID_00000105414853600283290720000017360153226701225652_"
         style="overflow:visible"
         id="use3"
         transform="matrix(0.26458439,0,0,0.26458333,-3.1190052,-118.71854)" />
    </clipPath>
    <clipPath
       clipPathUnits="userSpaceOnUse"
       id="clipPath4">
      <use
         xlink:href="#SVGID_00000105414853600283290720000017360153226701225652_"
         style="overflow:visible"
         id="use4"
         transform="matrix(0.26458439,0,0,0.26458333,-3.1190052,-118.71854)" />
    </clipPath>
    <clipPath
       clipPathUnits="userSpaceOnUse"
       id="clipPath5">
      <use
         xlink:href="#SVGID_00000105414853600283290720000017360153226701225652_"
         style="overflow:visible"
         id="use5"
         transform="matrix(0.26458439,0,0,0.26458333,-3.1190052,-118.71854)" />
    </clipPath>
    <clipPath
       clipPathUnits="userSpaceOnUse"
       id="clipPath6">
      <use
         xlink:href="#SVGID_00000105414853600283290720000017360153226701225652_"
         style="overflow:visible"
         id="use6"
         transform="matrix(0.26458439,0,0,0.26458333,-3.1190052,-118.71854)" />
    </clipPath>
    <clipPath
       clipPathUnits="userSpaceOnUse"
       id="clipPath7">
      <use
         xlink:href="#SVGID_00000105414853600283290720000017360153226701225652_"
         style="overflow:visible"
         id="use7"
         transform="matrix(0.26458439,0,0,0.26458333,-3.1190052,-118.71854)" />
    </clipPath>
    <clipPath
       clipPathUnits="userSpaceOnUse"
       id="clipPath8">
      <use
         xlink:href="#SVGID_00000105414853600283290720000017360153226701225652_"
         style="overflow:visible"
         id="use8"
         transform="matrix(0.26458439,0,0,0.26458333,-3.1190052,-118.71854)" />
    </clipPath>
    <clipPath
       clipPathUnits="userSpaceOnUse"
       id="clipPath9">
      <use
         xlink:href="#SVGID_00000105414853600283290720000017360153226701225652_"
         style="overflow:visible"
         id="use9"
         transform="matrix(0.26458439,0,0,0.26458333,-3.1190052,-118.71854)" />
    </clipPath>
    <clipPath
       clipPathUnits="userSpaceOnUse"
       id="clipPath10">
      <use
         xlink:href="#SVGID_00000105414853600283290720000017360153226701225652_"
         style="overflow:visible"
         id="use10"
         transform="matrix(0.26458439,0,0,0.26458333,-3.1190052,-118.71854)" />
    </clipPath>
    <clipPath
       clipPathUnits="userSpaceOnUse"
       id="clipPath11">
      <use
         xlink:href="#SVGID_00000105414853600283290720000017360153226701225652_"
         style="overflow:visible"
         id="use11"
         transform="matrix(0.26458439,0,0,0.26458333,-3.1190052,-118.71854)" />
    </clipPath>
    <clipPath
       clipPathUnits="userSpaceOnUse"
       id="clipPath12">
      <use
         xlink:href="#SVGID_00000105414853600283290720000017360153226701225652_"
         style="overflow:visible"
         id="use12"
         transform="matrix(0.26458439,0,0,0.26458333,-3.1190052,-118.71854)" />
    </clipPath>
    <clipPath
       clipPathUnits="userSpaceOnUse"
       id="clipPath13">
      <use
         xlink:href="#SVGID_00000105414853600283290720000017360153226701225652_"
         style="overflow:visible"
         id="use13"
         transform="matrix(0.26458439,0,0,0.26458333,-3.1190052,-118.71854)" />
    </clipPath>
    <clipPath
       clipPathUnits="userSpaceOnUse"
       id="clipPath14">
      <use
         xlink:href="#SVGID_00000105414853600283290720000017360153226701225652_"
         style="overflow:visible"
         id="use14"
         transform="matrix(0.26458439,0,0,0.26458333,-3.1190052,-118.71854)" />
    </clipPath>
    <clipPath
       clipPathUnits="userSpaceOnUse"
       id="clipPath15">
      <use
         xlink:href="#SVGID_00000105414853600283290720000017360153226701225652_"
         style="overflow:visible"
         id="use15"
         transform="matrix(0.26458439,0,0,0.26458333,-3.1190052,-118.71854)" />
    </clipPath>
    <clipPath
       clipPathUnits="userSpaceOnUse"
       id="clipPath16">
      <use
         xlink:href="#SVGID_00000105414853600283290720000017360153226701225652_"
         style="overflow:visible"
         id="use16"
         transform="matrix(0.26458439,0,0,0.26458333,-3.1190052,-118.71854)" />
    </clipPath>
    <clipPath
       clipPathUnits="userSpaceOnUse"
       id="clipPath17">
      <use
         xlink:href="#SVGID_00000105414853600283290720000017360153226701225652_"
         style="overflow:visible"
         id="use17"
         transform="matrix(0.26458439,0,0,0.26458333,-3.1190052,-118.71854)" />
    </clipPath>
    <clipPath
       clipPathUnits="userSpaceOnUse"
       id="clipPath18">
      <use
         xlink:href="#SVGID_00000105414853600283290720000017360153226701225652_"
         style="overflow:visible"
         id="use18"
         transform="matrix(0.26458439,0,0,0.26458333,-3.1190052,-118.71854)" />
    </clipPath>
    <clipPath
       clipPathUnits="userSpaceOnUse"
       id="clipPath19">
      <use
         xlink:href="#SVGID_00000105414853600283290720000017360153226701225652_"
         style="overflow:visible"
         id="use19"
         transform="matrix(0.26458439,0,0,0.26458333,-3.1190052,-118.71854)" />
    </clipPath>
    <linearGradient
       inkscape:collect="always"
       xlink:href="#linearGradient5"
       id="linearGradient6"
       x1="8.3539963"
       y1="2.9962766"
       x2="8.1593733"
       y2="4.2616396"
       gradientUnits="userSpaceOnUse" />
    <clipPath
       clipPathUnits="userSpaceOnUse"
       id="clipPath1-0">
      <use
         xlink:href="#SVGID_00000105414853600283290720000017360153226701225652_"
         style="overflow:visible"
         id="use1-9"
         transform="matrix(0.26458439,0,0,0.26458333,-3.1190052,-118.71854)" />
    </clipPath>
  </defs>
  <g
     inkscape:label="Calque 1"
     inkscape:groupmode="layer"
     id="layer1">
    <text
       xml:space="preserve"
       style="font-size:1px;font-family:Consolas;-inkscape-font-specification:Consolas;text-align:start;writing-mode:lr-tb;direction:ltr;text-anchor:start;opacity:1;fill:#000000;fill-opacity:0.533333;fill-rule:evenodd;stroke:#f3f3f3;stroke-width:0.211667;stroke-linecap:round;stroke-linejoin:round;stroke-miterlimit:3.6;stroke-dasharray:1.69333, 0.423333, 0.211667, 0.423333;paint-order:markers fill stroke"
       x="1.057554"
       y="2.3335159"
       id="text2"><tspan
         sodipodi:role="line"
         id="tspan2"
         style="stroke-width:0.211667;font-size:1px"
         x="1.057554"
         y="2.3335159" /></text>
    <path
       d="M 1.7558803,3.8358659 H 0.29437318 q 0.0375621,0.278301 0.23220207,0.4490378 0.19634735,0.1690295 0.48489255,0.1690295 0.1604926,0 0.3363515,-0.052928 0.175859,-0.052929 0.2868379,-0.1400042 0.03244,-0.025611 0.056343,-0.025611 0.027318,0 0.047806,0.022196 0.020488,0.020488 0.020488,0.049514 0,0.029025 -0.027318,0.056343 -0.081954,0.085368 -0.29196,0.1604926 -0.2082989,0.073417 -0.4285494,0.073417 -0.36879151,0 -0.6163599,-0.2407389 -0.24586101,-0.2424463 -0.24586101,-0.5856273 0,-0.3124484 0.2304947,-0.5361136 0.23220207,-0.2236652 0.57367571,-0.2236652 0.3517178,0 0.5787978,0.2304947 0.22708,0.2287873 0.2236652,0.5941641 z M 1.610754,3.6907396 Q 1.5680698,3.4534154 1.3853814,3.3048744 1.2044004,3.1563334 0.9534173,3.1563334 q -0.25098312,0 -0.43196415,0.1468336 -0.18098103,0.1468337 -0.2253726,0.3875726 z M 2.9066465,3.0624281 v 0.3619621 q 0.2800084,-0.2526905 0.4183052,-0.3244 0.1400042,-0.073417 0.2578126,-0.073417 0.1280526,0 0.2373242,0.087076 0.1109789,0.085368 0.1109789,0.12976 0,0.03244 -0.022196,0.054636 -0.020489,0.020488 -0.052929,0.020488 -0.017074,0 -0.029025,-0.00512 -0.011952,-0.00683 -0.044392,-0.039269 -0.059758,-0.059758 -0.1041494,-0.081954 -0.044392,-0.022196 -0.087076,-0.022196 -0.093905,0 -0.22708,0.075124 -0.1314673,0.075124 -0.4575747,0.3670842 V 4.39759 h 0.635141 q 0.052928,0 0.075124,0.020488 0.022196,0.018781 0.022196,0.051221 0,0.030733 -0.022196,0.051221 -0.022196,0.020488 -0.075124,0.020488 H 2.4166319 q -0.051221,0 -0.073417,-0.018781 -0.022196,-0.020488 -0.022196,-0.051221 0,-0.029025 0.020489,-0.047806 0.022196,-0.020488 0.075124,-0.020488 H 2.7632276 V 3.2075544 H 2.4985855 q -0.051221,0 -0.073417,-0.020488 -0.022196,-0.020488 -0.022196,-0.052928 0,-0.030733 0.020488,-0.051221 0.022196,-0.020488 0.075124,-0.020488 z m 2.0983556,0 v 0.3619621 q 0.2800083,-0.2526905 0.4183052,-0.3244 0.1400042,-0.073417 0.2578126,-0.073417 0.1280526,0 0.2373241,0.087076 0.110979,0.085368 0.110979,0.12976 0,0.03244 -0.022196,0.054636 -0.020488,0.020488 -0.052928,0.020488 -0.017074,0 -0.029025,-0.00512 -0.011952,-0.00683 -0.044392,-0.039269 -0.059758,-0.059758 -0.1041494,-0.081954 -0.044392,-0.022196 -0.087076,-0.022196 -0.093905,0 -0.22708,0.075124 -0.1314673,0.075124 -0.4575746,0.3670842 V 4.39759 H 5.640143 q 0.052928,0 0.075124,0.020488 0.022196,0.018781 0.022196,0.051221 0,0.030733 -0.022196,0.051221 -0.022196,0.020488 -0.075124,0.020488 H 4.5149874 q -0.051221,0 -0.073417,-0.018781 -0.022196,-0.020488 -0.022196,-0.051221 0,-0.029025 0.020488,-0.047806 0.022196,-0.020488 0.075124,-0.020488 H 4.8615831 V 3.2075544 h -0.264642 q -0.051221,0 -0.073417,-0.020488 -0.022196,-0.020488 -0.022196,-0.052928 0,-0.030733 0.020488,-0.051221 0.022196,-0.020488 0.075124,-0.020488 z m 3.0715556,0.7427052 q 0,0.3278147 -0.2356168,0.5600167 Q 7.6070315,4.5973521 7.275802,4.5973521 6.9411579,4.5973521 6.7072484,4.36515 6.473339,4.1312406 6.473339,3.8051333 q 0,-0.3278147 0.2339094,-0.5600168 0.2339095,-0.2339094 0.5685536,-0.2339094 0.3312295,0 0.5651389,0.232202 0.2356168,0.2322021 0.2356168,0.5617242 z m -0.1451263,0 q 0,-0.2697642 -0.1929326,-0.4592821 -0.1912252,-0.1895178 -0.4644041,-0.1895178 -0.273179,0 -0.4661116,0.1912252 -0.1912252,0.1895179 -0.1912252,0.4575747 0,0.2663494 0.1912252,0.4575746 0.1929326,0.1912253 0.4661116,0.1912253 0.2731789,0 0.4644041,-0.1895179 0.1929326,-0.1912252 0.1929326,-0.459282 z M 9.2017131,3.0624281 v 0.3619621 q 0.2800084,-0.2526905 0.4183052,-0.3244 0.1400042,-0.073417 0.2578126,-0.073417 0.1280531,0 0.2373241,0.087076 0.110979,0.085368 0.110979,0.12976 0,0.03244 -0.0222,0.054636 -0.02049,0.020488 -0.05293,0.020488 -0.01707,0 -0.02902,-0.00512 -0.01195,-0.00683 -0.04439,-0.039269 -0.05976,-0.059758 -0.1041495,-0.081954 -0.044391,-0.022196 -0.087076,-0.022196 -0.093905,0 -0.22708,0.075124 -0.1314673,0.075124 -0.4575747,0.3670842 V 4.39759 h 0.635141 q 0.052928,0 0.075124,0.020488 0.022196,0.018781 0.022196,0.051221 0,0.030733 -0.022196,0.051221 -0.022196,0.020488 -0.075124,0.020488 H 8.7116985 q -0.051221,0 -0.073417,-0.018781 -0.022196,-0.020488 -0.022196,-0.051221 0,-0.029025 0.020488,-0.047806 0.022196,-0.020488 0.075124,-0.020488 H 9.0582942 V 3.2075544 H 8.7936521 q -0.051221,0 -0.073417,-0.020488 -0.022196,-0.020488 -0.022196,-0.052928 0,-0.030733 0.020488,-0.051221 0.022196,-0.020488 0.075124,-0.020488 z m 5.1699119,0.7427052 q 0,0.3278147 -0.235617,0.5600167 -0.23391,0.2322021 -0.565139,0.2322021 -0.334644,0 -0.568554,-0.2322021 -0.233909,-0.2339094 -0.233909,-0.5600167 0,-0.3278147 0.233909,-0.5600168 0.23391,-0.2339094 0.568554,-0.2339094 0.331229,0 0.565139,0.232202 0.235617,0.2322021 0.235617,0.5617242 z m -0.145127,0 q 0,-0.2697642 -0.192932,-0.4592821 -0.191226,-0.1895178 -0.464405,-0.1895178 -0.273178,0 -0.466111,0.1912252 -0.191225,0.1895179 -0.191225,0.4575747 0,0.2663494 0.191225,0.4575746 0.192933,0.1912253 0.466111,0.1912253 0.273179,0 0.464405,-0.1895179 0.192932,-0.1912252 0.192932,-0.459282 z m 1.915667,-0.6487999 q 0,-0.049514 0.02049,-0.071709 0.02049,-0.022196 0.05122,-0.022196 0.03244,0 0.05293,0.022196 0.02049,0.022196 0.02049,0.075124 v 0.245861 q 0,0.051221 -0.02049,0.073417 -0.02049,0.022196 -0.05293,0.022196 -0.02903,0 -0.04951,-0.018781 -0.01878,-0.018781 -0.0222,-0.061465 -0.01024,-0.1024421 -0.105857,-0.1690294 -0.140004,-0.095613 -0.370499,-0.095613 -0.240738,0 -0.373913,0.09732 -0.100735,0.073417 -0.100735,0.1639074 0,0.1024421 0.119516,0.1707368 0.08195,0.047806 0.310741,0.073417 0.298789,0.03244 0.41489,0.073417 0.165615,0.059758 0.245861,0.1656147 0.08195,0.1058568 0.08195,0.2287873 0,0.1826884 -0.175859,0.3261073 -0.175859,0.1417116 -0.515625,0.1417116 -0.339766,0 -0.556602,-0.1724442 0,0.058051 -0.0068,0.075124 -0.0068,0.017074 -0.02561,0.029025 -0.01707,0.011951 -0.03927,0.011951 -0.03073,0 -0.05122,-0.022196 -0.02049,-0.022196 -0.02049,-0.073417 V 4.1500216 q 0,-0.051221 0.01878,-0.073417 0.02049,-0.022196 0.05293,-0.022196 0.03073,0 0.05122,0.022196 0.0222,0.020488 0.0222,0.056343 0,0.078539 0.03927,0.1314673 0.05976,0.081954 0.189518,0.1365895 0.131467,0.052928 0.320985,0.052928 0.280008,0 0.416598,-0.1041495 0.136589,-0.1041494 0.136589,-0.2202505 0,-0.1331747 -0.138297,-0.213421 -0.140004,-0.080246 -0.408061,-0.1075642 -0.266349,-0.027318 -0.38245,-0.071709 -0.116101,-0.044392 -0.180981,-0.1331747 -0.06488,-0.088783 -0.06488,-0.1912252 0,-0.1843958 0.180981,-0.29196 0.180981,-0.1092715 0.431964,-0.1092715 0.297082,0 0.483185,0.1451263 z"
       id="text3"
       style="font-size:3.49669px;font-family:Monospace;-inkscape-font-specification:Monospace;fill:url(#linearGradient6);fill-rule:evenodd;stroke-width:0.740134;stroke-linecap:round;stroke-linejoin:round;stroke-miterlimit:3.6;stroke-dasharray:5.92105, 1.48027, 0.740134, 1.48027;paint-order:markers fill stroke"
       transform="scale(0.94243148,1.0610851)"
       aria-label="error os" />
    <path
       class="st26"
       d="M 11.300844,2.0108335 10.930426,2.3812501 10.560008,2.0108335 10.930426,1.6404168 11.300844,2.0108335"
       id="path278"
       style="opacity:0.71;fill:#d6d6d6;fill-opacity:1;stroke-width:0.14634945;stroke:#000000;stroke-opacity:0.12903225;stroke-dasharray:none"
       clip-path="url(#clipPath1-0)"
       transform="matrix(0.67246602,0,0,0.6943005,3.4867278,3.3288149)" />
  </g>
</svg>
